<svg xmlns="http://www.w3.org/2000/svg" viewBox="0 0 54.19 76.24"><defs><style>.cls-1,.cls-2{fill:#fd7e14;}.cls-1{opacity:0.33;}</style></defs><g id="Capa_2" data-name="Capa 2"><g id="Capa_1-2" data-name="Capa 1"><path class="cls-1" d="M46.41,7.58Q38.67.05,27.07.06T7.73,7.58A25.06,25.06,0,0,0,0,26.31,25.16,25.16,0,0,0,7.73,45.07a27.26,27.26,0,0,0,2.75,2.34L.44,72,10.8,76.24,20.71,52a31,31,0,0,0,6.36.63q11.59,0,19.34-7.54a25.16,25.16,0,0,0,7.73-18.76A25.06,25.06,0,0,0,46.41,7.58ZM38.05,34.84a17.35,17.35,0,0,1-11,3.41,17.56,17.56,0,0,1-11-3.41,10.43,10.43,0,0,1,0-17,17.61,17.61,0,0,1,11-3.39,17.4,17.4,0,0,1,11,3.39,10.48,10.48,0,0,1,0,17Z"/><path class="cls-2" d="M50,11.72,38.46,18a10.25,10.25,0,0,1,4,8.21,10.44,10.44,0,0,1-4.37,8.53,17.35,17.35,0,0,1-11,3.41,17.56,17.56,0,0,1-11-3.41,10.41,10.41,0,0,1,0-17,17.61,17.61,0,0,1,11-3.39V0Q15.51,0,7.78,7.52A25.06,25.06,0,0,0,.05,26.25,25.16,25.16,0,0,0,7.78,45a27.26,27.26,0,0,0,2.75,2.34L.49,71.94l10.36,4.24,9.91-24.26a31,31,0,0,0,6.36.63q11.6,0,19.33-7.54a25.13,25.13,0,0,0,7.74-18.76A25.3,25.3,0,0,0,50,11.72Z"/></g></g></svg>