<svg xmlns="http://www.w3.org/2000/svg" viewBox="0 0 373.65 95.75"><defs><style>.cls-1{opacity:0.5;}.cls-2{fill:#6f42c1;}.cls-3{fill:#dc3545;}.cls-4{fill:#0d6efd;}.cls-5{fill:#fd7e14;}.cls-6{fill:none;}</style></defs><g id="Capa_2" data-name="Capa 2"><g id="Capa_1-2" data-name="Capa 1"><g class="cls-1"><path class="cls-2" d="M36.56,31.58H71V70.92H61.68V57.33q-8.07,14.74-25.8,14.79-15.32,0-25.6-10.09T0,37q0-15,10.28-25T35.88,1.84a36.54,36.54,0,0,1,21.5,6.51,29.3,29.3,0,0,1,12,16.74H55.15a19.73,19.73,0,0,0-8-5.91A28.45,28.45,0,0,0,35.88,17Q26,17,19.22,22.71A17.93,17.93,0,0,0,12.49,37a17.92,17.92,0,0,0,6.73,14.27q6.72,5.69,16.66,5.69a29.15,29.15,0,0,0,13.6-3,18.51,18.51,0,0,0,8.45-8.14H36.56Z"/><path class="cls-3" d="M92.91,33.26a25.85,25.85,0,0,1,7.71-9.8A17.2,17.2,0,0,1,111.21,20V37.68q-8.94,0-13.62,3.15a10.23,10.23,0,0,0-4.68,9.05v21H81.71V20.77h11.2Z"/><path class="cls-4" d="M221.17,64.58q-7.74,7.55-19.34,7.54T182.5,64.58a25.13,25.13,0,0,1-7.74-18.76,25,25,0,0,1,7.74-18.73q7.73-7.53,19.33-7.52t19.34,7.52a25.06,25.06,0,0,1,7.73,18.73A25.16,25.16,0,0,1,221.17,64.58ZM190.81,54.35a17.51,17.51,0,0,0,11,3.41,17.32,17.32,0,0,0,11-3.41,10.48,10.48,0,0,0,0-17,17.37,17.37,0,0,0-11-3.39,17.56,17.56,0,0,0-11,3.39,10.41,10.41,0,0,0,0,17Z"/><path class="cls-2" d="M266.85,19.57a22.47,22.47,0,0,1,17.32,7.52q6.9,7.52,6.89,18.73t-6.89,18.76a22.46,22.46,0,0,1-17.32,7.54,19.75,19.75,0,0,1-10.76-3,21.29,21.29,0,0,1-7.54-8.33V70.92H237.36V.06h11.19v30.8a20.62,20.62,0,0,1,7.52-8.31A19.93,19.93,0,0,1,266.85,19.57ZM253,54.35a19.5,19.5,0,0,0,22,0,10.41,10.41,0,0,0,0-17,19.59,19.59,0,0,0-22,0,10.38,10.38,0,0,0,0,17Z"/><path class="cls-3" d="M299.71,70.92V.06H310.9V70.92Z"/><path class="cls-5" d="M161.55,27.09q-7.73-7.53-19.33-7.52t-19.34,7.52a25.06,25.06,0,0,0-7.73,18.73,25.16,25.16,0,0,0,7.73,18.76,27.26,27.26,0,0,0,2.75,2.34l-10,24.59L126,95.75l9.9-24.26a31.21,31.21,0,0,0,6.37.63q11.6,0,19.33-7.54a25.13,25.13,0,0,0,7.74-18.76A25,25,0,0,0,161.55,27.09Zm-8.36,27.26a17.31,17.31,0,0,1-11,3.41,17.54,17.54,0,0,1-11-3.41,10.41,10.41,0,0,1,0-17,17.59,17.59,0,0,1,11-3.39,17.36,17.36,0,0,1,11,3.39,10.47,10.47,0,0,1,0,17Z"/><path class="cls-5" d="M373.59,46.13a25,25,0,0,1-.28,3.94H331.08a12.45,12.45,0,0,0,5.77,6.49,20.2,20.2,0,0,0,10.08,2.35q9.38,0,13.36-3.84h12.39a24.94,24.94,0,0,1-9.87,12.37,28.51,28.51,0,0,1-16.16,4.68q-11.64,0-19.41-7.54a25.06,25.06,0,0,1-7.78-18.76,25,25,0,0,1,7.73-18.73q7.74-7.53,19.33-7.52t19.34,7.52Q373.6,34.61,373.59,46.13Zm-27-13.4a19,19,0,0,0-9.66,2.38,12.6,12.6,0,0,0-5.71,6.41h30.89a12.11,12.11,0,0,0-5.7-6.41A19.54,19.54,0,0,0,346.55,32.73Z"/></g><path class="cls-2" d="M36.61,31.52V45.69H58a18.58,18.58,0,0,1-8.46,8.14,29.14,29.14,0,0,1-13.59,3.05q-9.94,0-16.67-5.69A21,21,0,0,1,17,49L9.36,61c.31.33.64.66,1,1Q20.6,72.07,35.94,72.06q17.72,0,25.79-14.79V70.86h9.32V31.52ZM57.43,8.29A36.51,36.51,0,0,0,35.94,1.78q-15.33,0-25.61,10.09a35.81,35.81,0,0,0-4.66,5.59L16.24,25.8a20.36,20.36,0,0,1,3-3.15Q26,17,35.94,17A28.44,28.44,0,0,1,47.2,19.12a19.75,19.75,0,0,1,8,5.91H69.47A29.3,29.3,0,0,0,57.43,8.29Z"/><path class="cls-3" d="M100.67,23.4A25.85,25.85,0,0,0,93,33.2V20.71H81.76V52.88L93,52.61V49.82a10.23,10.23,0,0,1,4.68-9q4.68-3.15,13.62-3.15V19.89A17.2,17.2,0,0,0,100.67,23.4Z"/><path class="cls-4" d="M221.22,27q-7.74-7.53-19.34-7.52V33.87a17.37,17.37,0,0,1,11,3.39,10.48,10.48,0,0,1,0,17,17.32,17.32,0,0,1-11,3.41,17.53,17.53,0,0,1-11-3.41,10.41,10.41,0,0,1,0-17l.18-.13-11.46-6.68a25.24,25.24,0,0,0-4.77,15.31,25.13,25.13,0,0,0,7.74,18.76q7.74,7.55,19.33,7.54t19.34-7.54A25.12,25.12,0,0,0,229,45.76,25,25,0,0,0,221.22,27Z"/><path class="cls-2" d="M289.46,55.86a29.52,29.52,0,0,0,1.66-10.1q0-11.22-6.9-18.73a22.47,22.47,0,0,0-17.32-7.52,19.93,19.93,0,0,0-10.78,3,20.62,20.62,0,0,0-7.52,8.31V0H237.41V70.86H248.6V60.73a21.29,21.29,0,0,0,7.54,8.33,19.75,19.75,0,0,0,10.76,3,23,23,0,0,0,11.4-2.8l-8.15-12.42a20.49,20.49,0,0,1-6.08.86,17.57,17.57,0,0,1-11-3.41,10.37,10.37,0,0,1,0-17,19.57,19.57,0,0,1,22,0,10.3,10.3,0,0,1,4.42,8.5A9.88,9.88,0,0,1,277.37,52Z"/><path class="cls-3" d="M299.76,16.14V70.86H311v-54Z"/><path class="cls-5" d="M165.12,31.23l-11.51,6.32a10.25,10.25,0,0,1,4,8.21,10.44,10.44,0,0,1-4.37,8.53,17.35,17.35,0,0,1-11,3.41,17.56,17.56,0,0,1-11-3.41,10.41,10.41,0,0,1,0-17,17.61,17.61,0,0,1,11-3.39V19.51q-11.61,0-19.34,7.52a25.06,25.06,0,0,0-7.73,18.73,25.16,25.16,0,0,0,7.73,18.76,27.26,27.26,0,0,0,2.75,2.34l-10,24.59L126,95.69l9.91-24.26a31,31,0,0,0,6.36.63q11.6,0,19.33-7.54a25.13,25.13,0,0,0,7.74-18.76A25.3,25.3,0,0,0,165.12,31.23Z"/><path class="cls-5" d="M365.91,27q-7.73-7.53-19.33-7.52T327.24,27a25,25,0,0,0-7.73,18.73,26.81,26.81,0,0,0,1.88,10.15l13-1.17A12,12,0,0,1,331.13,50h42.23a24.93,24.93,0,0,0,.29-3.94Q373.65,34.55,365.91,27ZM331.23,41.46a12.6,12.6,0,0,1,5.71-6.41,19,19,0,0,1,9.66-2.38,19.54,19.54,0,0,1,9.82,2.38,12.11,12.11,0,0,1,5.7,6.41Zm16.25,17.38-6.43,12.73a31.35,31.35,0,0,0,5.65.49,28.51,28.51,0,0,0,16.16-4.68A24.94,24.94,0,0,0,372.73,55H360.34Q356.46,58.75,347.48,58.84Z"/><line class="cls-6" x1="16.99" y1="48.96" x2="9.36" y2="60.98"/><line class="cls-6" x1="92.96" y1="52.61" x2="81.76" y2="52.88"/><line class="cls-6" x1="142.27" y1="33.87" x2="142.27" y2="19.51"/><line class="cls-6" x1="278.3" y1="69.26" x2="270.15" y2="56.84"/><line class="cls-6" x1="334.41" y1="54.74" x2="321.39" y2="55.91"/><line class="cls-6" x1="347.48" y1="58.84" x2="341.05" y2="71.57"/><line class="cls-6" x1="310.96" y1="16.88" x2="299.76" y2="16.14"/><line class="cls-6" x1="289.46" y1="55.86" x2="277.37" y2="52.02"/><line class="cls-6" x1="191.04" y1="37.13" x2="179.58" y2="30.45"/><line class="cls-6" x1="201.88" y1="33.87" x2="201.88" y2="19.51"/><line class="cls-6" x1="165.12" y1="31.23" x2="153.61" y2="37.55"/><line class="cls-6" x1="16.24" y1="25.8" x2="5.67" y2="17.46"/></g></g></svg>